/* XPM */
static char *b6627ba9756c418db1b110e6cbcb382bz3jWXDi8b4eRVYAh[] = {
/* columns rows colors chars-per-pixel */
"50 50 194 2 ",
"   c #47704C",
".  c #855820",
"X  c #AC4512",
"o  c #AC3C04",
"O  c #0E5A0F",
"+  c #0C610C",
"@  c #0E560E",
"#  c #AC3A03",
"$  c #6C6957",
"%  c #AA3A03",
"&  c #035003",
"*  c #AB4515",
"=  c #FC9524",
"-  c #D89EC5",
";  c #359B2D",
":  c #025B01",
">  c #AD3D04",
",  c #FA9833",
"<  c #FC9320",
"1  c #FF911C",
"2  c #065B05",
"3  c #8F6033",
"4  c #FE911A",
"5  c #D36D12",
"6  c #AD3B04",
"7  c None",
"8  c #026502",
"9  c #167C13",
"0  c #D36B0F",
"q  c #EB8A24",
"w  c #046F02",
"e  c #AC3B04",
"r  c #AD430F",
"t  c #EBB278",
"y  c #055904",
"u  c #135913",
"i  c #AC3B02",
"p  c #D26F18",
"a  c #FE9523",
"s  c #FC9424",
"d  c #025A02",
"f  c #FE9321",
"g  c #CF6A16",
"h  c #FE8F19",
"j  c #127C0D",
"k  c #0C5803",
"l  c #BA4D0C",
"z  c #035904",
"x  c #FC9320",
"c  c #014C02",
"v  c #AE4204",
"b  c #AB400B",
"n  c #F29523",
"m  c #FC911D",
"M  c #0E7B0B",
"N  c #C55B09",
"B  c #1B7E17",
"V  c #AB410C",
"C  c #D16A10",
"Z  c #2E892D",
"A  c #087006",
"S  c #11790F",
"D  c #0A510A",
"F  c #0D730D",
"G  c #3FAA3C",
"H  c #095C09",
"J  c #027002",
"K  c #3CBC38",
"L  c #FA9527",
"P  c #F69A36",
"I  c #34BE30",
"U  c #024C03",
"Y  c #33AD32",
"T  c #FE911B",
"R  c #FE911C",
"E  c #2B8E29",
"W  c #157A12",
"Q  c #DB7313",
"!  c #197B16",
"~  c #026102",
"^  c #AC400C",
"/  c #993E05",
"(  c #AD4817",
")  c #AD4717",
"_  c #AB3A03",
"`  c #015901",
"'  c #EA8219",
"]  c #1E951B",
"[  c #E97F18",
"{  c #025A01",
"}  c #248C21",
"|  c #094D09",
" . c #0D520D",
".. c #026302",
"X. c #AB3C08",
"o. c #074D09",
"O. c #36A433",
"+. c #1C9318",
"@. c #46B945",
"#. c #034C03",
"$. c #036A03",
"%. c #095409",
"&. c #34BE32",
"*. c #33BE30",
"=. c #31B92E",
"-. c #418720",
";. c #AA3804",
":. c #AC3900",
">. c #D36A0D",
",. c #FF9019",
"<. c #0C7B09",
"1. c #FEA73E",
"2. c #FF8F08",
"3. c #B35300",
"4. c #005A00",
"5. c #FEA63C",
"6. c #004F00",
"7. c #FF9009",
"8. c #FFC178",
"9. c #027000",
"0. c #EA7D0C",
"q. c #B03E01",
"w. c #FE9623",
"e. c #FEB359",
"r. c #2C8A2A",
"t. c #016703",
"y. c #FE9B24",
"u. c #087906",
"i. c #057303",
"p. c #006500",
"a. c #0C8609",
"s. c #B24D01",
"d. c #FF9D2C",
"f. c #D66C0D",
"g. c #EC810F",
"h. c #AE3B01",
"j. c #C46007",
"k. c #33BE2F",
"l. c #FEA032",
"z. c #FEB65F",
"x. c #026102",
"c. c #FFA840",
"v. c #FEAD4C",
"b. c #FE9A29",
"n. c #CF640C",
"m. c #2A9029",
"M. c #FDBC6F",
"N. c #CB640A",
"B. c #1F971C",
"V. c #F5860A",
"C. c #B85702",
"Z. c #1A7D19",
"A. c #FE9210",
"S. c #29A326",
"D. c #B24503",
"F. c #FC8C09",
"G. c #10800D",
"H. c #1F941D",
"J. c #F28F1D",
"K. c #31B82E",
"L. c #198417",
"P. c #0B9907",
"I. c #076705",
"U. c #CA5E0B",
"Y. c #E27913",
"T. c #1F8C1C",
"R. c #3BAD38",
"E. c #1F9A1D",
"W. c #006B00",
"Q. c #F79F3B",
"!. c #DB710D",
"~. c #2E9A2B",
"^. c #0C9C07",
"/. c #A23E01",
"(. c #F2840A",
"). c #265E03",
"_. c #015D02",
"`. c #2A8B2A",
"'. c #0B9A07",
"]. c #DF740D",
"[. c #289925",
"{. c #2D6606",
"}. c #C76B0D",
"|. c #E48220",
" X c #7D5902",
".X c #C06818",
"XX c #538B27",
"oX c #326705",
"OX c #956205",
"+X c #CC7015",
"@X c #827C20",
"#X c #677218",
"$X c #4D7817",
"%X c #647218",
/* pixels */
"                                                                                  - - - -           ",
"                                                                                . H 2 2 H .         ",
"                                                                                O : 4.4.: +         ",
"                                                                                + : 4.4.: +         ",
"                                                                          @.; ; Y : 4.4.: +         ",
"                                                                          Y &.*.=.F p.p.8 +         ",
"                                                                          K I k.K.<.p.p.8 +         ",
"                                                              $ $ $ $ $   K I k.K.u.p.p.8 + - $     ",
"                                                            ; W S S } G G O.+.H.H.<.i.i.A 2 2 y u   ",
"                                                            B M <.<.T.R.R.S.G.u.<.<.<.<.i._.4.d @   ",
"                                                            B M <.u.T.R.R.S.G.<.<.<.<.<.i.4.4.d @   ",
"                                              . ! 9 9 9 Z Z E ] B.B.B.[.[.B.a.a.a.u.u.u.A 2 y y u   ",
"                                              ; j <.<.G.r.r.m.K.k.k.S.<.<.G.P.^.'.u.9.9.w +         ",
"                                              ; j <.<.G.r.r.m.K.k.k.S.<.<.G.P.^.'.u.9.9.w +         ",
"                                  t , , , , t ; j <.<.G.r.r.m.K.k.k.S.<.<.G.P.^.P.u.9.9.w .         ",
"                                  f 1 1 1 1 1 n -.L.L.T.H.H.H.~.~.~.T.i.i.u.a.a.a.t.x.x.~ .         ",
"                                  s ,.,.,.,.,.J.XXr.r.m.E.E.B.`.r.r.Z.9.9.9.<.<.u.x.4.4.` .         ",
"                                  s ,.,.,.,.,.J.XX`.`.m.E.E.B.`.r.r.Z.9.9.i.<.<.<.x.4.4.{ 3         ",
"                          q < m m n b.b.d.5.5.Q.@X%X#X$XL.L.L.Z.Z.Z.F x.x.x.I.I.I.p.p.p...z z z O   ",
"                        t = 4 ,.,.b.1.1.v.8.8.M..X3.3. XI.t.t.t.t.t._.6.6.6.6.6.6.W.i.i.W.4.4.d @   ",
"                          = 4 ,.,.b.1.5.v.8.8.M..X3.3. XI.t.t.t.t.t._.6.6.6.6.6.6.W.i.i.W.4.4.k @   ",
"                    q = = < a w.w.l.v.v.v.z.z.e.+Xj.j.OXoX{.{.).).).k & & & & & & J J J $.4.4.k @   ",
"                    < 4 4 a 5.5.5.e.8.8.e.A.A.A.F.F.F.g.}.}.j././././ O O O O O O O O + %.c 6.U @   ",
"                    < ,.,.w.5.1.1.e.8.8.e.A.2.2.2.2.7.(.f.>.n.q.:.:.%                   o.c 6.U @   ",
"                    < ,.,.w.5.1.5.e.8.8.z.A.2.2.2.2.7.(.>.>.n.q.:.:.%                   | c 6.#.@   ",
"              5 g g ' ,.,.w.e.e.e.e.z.z.v.7.2.2.g.0.0.Y.>.>.n.q.:.:.%                   @ D D  .u   ",
"              C >.>.Y.,.,.b.M.8.8.e.5.1.l.7.2.F.!.>.>.>.>.>.n.q.:.:.%                               ",
"              C >.>.Y.,.,.b.M.8.8.z.1.1.l.7.2.F.!.>.>.>.>.>.n.q.:.:.%                               ",
"      q p p p Q ].!.g.w.w.d.z.M.M.v.l.l.b.V.V.(.>.N.N.N.U.U.N > e > b                               ",
"      5 0 0 0 g.h h w.5.5.5.c.c.c.y.7.7.V.f.f.>.C.3.3.s.h.h.6 X * * .                               ",
"      5 >.>.>.g.,.,.b.1.1.1.1.1.1.y.2.2.V.f.>.>.C.3.3.s.:.:.6 )                                     ",
"      5 >.>.>.g.,.,.b.1.1.1.1.1.c.y.2.7.V.f.>.>.C.3.3.s.:.:.6 (                                     ",
"      [ 0.0.0.J.d.b.b.y.y.y.y.y.y.J.0.0.].j.j.j.s.D.D.v V V b *                                     ",
"      f ,.,.,.l.1.1.d.2.2.2.2.2.2.0.>.>.N.3.3.3.q.:.:.o t                                           ",
"      f h ,.,.l.c.c.d.7.7.7.7.7.7.0.>.>.N.3.3.3.q.:.:.o 3                                           ",
"P L L s w.w.w.7 7 7 J.g.g.0.0.0.0.f.U.U.N s.s.s.> e e ^ 3                                           ",
"x T T 7 5.5.5.|.f.f.N.C.C.3.q.h.q.h.h.h.h.:.:.i r . . .                                             ",
"x ,.,.w.1.c.1.|.>.>.j.3.3.s.h.:.:.:.:.:.:.:.:._ X                                                   ",
"x R R a Q.Q.Q.Y.n.n.j.3.3.s.i # # # # # # # i 6 X                                                   ",
"P = = g l l l D.D.D.q.q.q.v r X X X X X X X X X .                                                   ",
"      ;.:.:.:.:.:.:.:.:.:.> *                                                                       ",
"      X.:.:.:.:.:.:.:.:.:.> *                                                                       ",
"      r o o o o o o o o o % *                                                                       ",
"      $ . . . . . . . . . 3 -                                                                       ",
"                                                                                                    ",
"                                                                                                    ",
"                                                                                                    ",
"                                                                                                    ",
"                                                                                                    ",
"                                                                                                    "
};
