/* XPM */
static char *ad64bd370e7a4606a04461284575e197wTbRwdxQygELsIT1[] = {
/* columns rows colors chars-per-pixel */
"50 50 57 1 ",
"  c #47704C",
". c #CFD3D7",
"X c #CAD0D4",
"o c #AEB3BB",
"O c #D4D6D8",
"+ c #C6CACF",
"@ c #C8CED3",
"# c None",
"$ c #E7E9ED",
"% c #C9CBD0",
"& c #C6CCD4",
"* c #C8CDD2",
"= c #CED2D4",
"- c #CBCED4",
"; c #C2C6CE",
": c #E6E8E9",
"> c #C9CDD5",
", c #C9CED5",
"< c #B5BABF",
"1 c #3E3F49",
"2 c #9397A0",
"3 c #B4B9C1",
"4 c #91959C",
"5 c #B9C0CA",
"6 c #AAB1BD",
"7 c #A3ABB5",
"8 c #C7CCD2",
"9 c #D9DCE0",
"0 c #E6E7EB",
"q c #B9BEC6",
"w c #A5ADB9",
"e c #C2C8D0",
"r c #C2CAD3",
"t c #D6DCE0",
"y c #A9ACB3",
"u c #A7ABB3",
"i c #C1C5CD",
"p c #1F1E24",
"a c #606777",
"s c #202028",
"d c #1D1C23",
"f c #31323A",
"g c #808899",
"h c #7A8395",
"j c #B6BDC7",
"k c #6B7280",
"l c #50535F",
"z c #646B7A",
"x c #2B2C35",
"c c #CCCFD7",
"v c #505664",
"b c #23232A",
"n c #5D616E",
"m c #383843",
"M c #8B94A2",
"N c #5B6373",
"B c #5B616F",
/* pixels */
"                                                  ",
"                                                  ",
"                                                  ",
"                                                  ",
"                                                  ",
"                                                  ",
"                                                  ",
"                                                  ",
"                                                  ",
"                                                  ",
"                                                  ",
"                                                  ",
"                                                  ",
"                                                  ",
"                                                  ",
"                                                  ",
"                                                  ",
"                  .,9::::09>>,,.                  ",
"               =++qo;%cccc;jjjoq++=               ",
"               8erwkkkggggggg#kwre8               ",
"             O@7gghzzkhhhhhhh#zhgg7>O             ",
"            .i6MaaNvvvaaaaaaaBvNaaM6i.            ",
"            *5#zaalbssssssssssslaaa#5*            ",
"            *j#lffxpppppppppppsxffl#j@            ",
"            *jnmpdpppppppppppppsppmnj@            ",
"            X31bpppppppppppppppsssb13*            ",
"            =+ykdddppppppppppppppdku+=            ",
"             OX4azlsppddddddddplza4XO             ",
"               -&&2ffffffffffff2&&-               ",
"               O..<ooooj%%%;ooo<..O               ",
"                  .XXXXt$$$$X*X.                  ",
"                                                  ",
"                                                  ",
"                                                  ",
"                                                  ",
"                                                  ",
"                                                  ",
"                                                  ",
"                                                  ",
"                                                  ",
"                                                  ",
"                                                  ",
"                                                  ",
"                                                  ",
"                                                  ",
"                                                  ",
"                                                  ",
"                                                  ",
"                                                  ",
"                                                  "
};
