/* XPM */
static char *dc91c03e8e184cc79e0f48fd659030b4g6WeDCICFiciHO2D[] = {
/* columns rows colors chars-per-pixel */
"50 50 119 2 ",
"   c #37571D",
".  c #33591D",
"X  c #3D5B1F",
"o  c #375E23",
"O  c #3B5E22",
"+  c #3D6126",
"@  c #3E6329",
"#  c #425E25",
"$  c #445F28",
"%  c #436127",
"&  c #44652A",
"*  c #4A662C",
"=  c #466A2E",
"-  c #4B692E",
";  c #506D2F",
":  c #4C6730",
">  c #466D32",
",  c #4C6C32",
"<  c #526D34",
"1  c #546F38",
"2  c #4D7135",
"3  c #4D7439",
"4  c #537136",
"5  c #57733A",
"6  c #567239",
"7  c #517439",
"8  c #507539",
"9  c #50753B",
"0  c #53753A",
"q  c #51763A",
"w  c #52773B",
"e  c #54743A",
"r  c #56743A",
"t  c #57753B",
"y  c #54763B",
"u  c #55763B",
"i  c #57723C",
"p  c #51763C",
"a  c #52773D",
"s  c #57773C",
"d  c #53753A",
"f  c #597439",
"g  c #5A7638",
"h  c #5B7739",
"j  c #59743B",
"k  c #5A763A",
"l  c #5B773B",
"z  c #59743D",
"x  c #5A753C",
"c  c #58763C",
"v  c #59773D",
"b  c #5B763D",
"n  c #5A753E",
"m  c #5B763F",
"M  c #5A753C",
"N  c #53783C",
"B  c #537A3F",
"V  c #55783C",
"C  c #56793D",
"Z  c #547A3D",
"A  c #577A3E",
"S  c #567B3E",
"D  c #547C3E",
"F  c #557A3D",
"G  c #5C783A",
"H  c #58783D",
"J  c #59793E",
"K  c #5A783E",
"L  c #5C783C",
"P  c #5C783E",
"I  c #5D793E",
"U  c #5E7A3F",
"Y  c #59793E",
"T  c #5C7740",
"R  c #577C40",
"E  c #577C42",
"W  c #577B42",
"Q  c #587B40",
"!  c #5A7A40",
"~  c #5B7B41",
"^  c #5D7940",
"/  c #5C7A40",
"(  c #5E7A41",
")  c #5D7842",
"_  c #5E7943",
"`  c #5A7C41",
"'  c #587D43",
"]  c #5B7D42",
"[  c #5A7F43",
"{  c #5F7D43",
"}  c #5C7F43",
"|  c #5E7E43",
" . c #5B7D42",
".. c #607B40",
"X. c #607B42",
"o. c #617D41",
"O. c #617C43",
"+. c #607B44",
"@. c #627D44",
"#. c #617F45",
"$. c #637F45",
"%. c #627D46",
"&. c #617C43",
"*. c #5D8044",
"=. c #5E8145",
"-. c #5D8245",
";. c #5F8247",
":. c #5E8347",
">. c #608045",
",. c #608045",
"<. c #618348",
"1. c #658148",
"2. c #648248",
"3. c #658349",
"4. c #678249",
"5. c #67824B",
"6. c #638449",
"7. c #648248",
"8. c #6D8950",
/* pixels */
"G G h h 6 6 6 6 6 ^ 6 % i i i i , * , b 6 6 6 6 6 6 < < - h I 6 , < 6 h 6 < - b 7 7 7 7 , , , , = A ",
"f f 4 < - - * * % 6 ^ 6 < < 1 1 * $ * 1 < < < < - * * * - < 6 6 h 6 < , % $ , r 4 4 2 2 = = = = , 7 ",
"; ; - - - * * * % 6 ^ 6 , , , , : % : 6 , , , , * * % % < < < < < < - * # # b , - - - - & & & & 4 , ",
"- - - < < 6 6 6 6 ^ i % * * * * 1 < 1 +.* - - - - - , , I - % , % * - < 6 , 4.* * * & & , , , , 7 = ",
"..% , * 4.I 6 < %.%.6 # < b %...i b ^ %.$ # - %.4.6 - < 8.h # < 6 %.%., 6 I } % % , r } A 2 2 <.2 O ",
"< X 6 h 6 6 h h h ^ 1 # 4.< - 6 < 1 b b * ^ ^ - < 6 6 < h < % h < - , < < 6 ^ * s 7 , = - 7 7 7 2 + ",
"< X 4 h @.h * X * < < $ < I 6 # * - < < - , 6 ^ h % % j - < * 6 4 } r # - * 6 - - , 7 A % , , , 2 & ",
"..% - * < < * % $ - , % % % - 6 # % * - < - * * h , % $ - < % * % - , - * # , , - , 7 A & O O , 4 = ",
"b 6 - * $ b ..$ < - - - * * < h , % < < 6 < * # 6 6 * # , , , < % - ^ - % % , r , & & , 7 & , & 4 4 ",
"6 < < - * b b * < @.@.< 6 6 h I 6 $ 6 4.b < * , < 6 - $ 4.^ < * , 4 ^ r O 4 ! ! = = , A ] O O 4 7 7 ",
", < 1 1 < 1 < , < # # < - - * % 6 * - X 6 < * O - < < % * * , < * = = 4 4 & + = , , & O , 2 & = 2 2 ",
": , 6 b i < , , < 6 f < 6 h < * I * , < 6 h b ^ - , < * * , r ^ , 2 = } , 2 2 , 2 A 7 = = A & & , , ",
", < < 6 6 < , , < < < < < 6 6 - % * - , 6 b 6 , * * - < , < < - r 2 + - = 7 7 = A 7 , = + & , 2 , , ",
"< < < , : , 6 6 4 < < 4 4 - - 6 j 6 < - 6 < * * < 6 6 6 , < , * * % r s , 2 2 , , = = = 4 , , = , , ",
"< < < , : , 6 6 4 < < 4 4 - - 6 6 4 < - 6 , - - < 6 6 < - < < * * * r 4 2 , , 2 = = - , 4 , , - , 2 ",
"< < < 1 i 6 , - < < < - - 6 6 - % * - - h 6 6 6 < * * * % 4 r , , ! , * 7 = = 7 - , 7 A = = = , , , ",
"< T : i < 1 6 h , * I 6 < < < < 6 < * % h 6 6 < < < < < * < 4 < 7 7 7 7 4 & = ] 7 r r r 2 , & % A A ",
"< i < 6 < < < < , , h h 6 6 6 6 < - - * h 6 6 < , < < < * < 4 < 4 4 4 4 2 = , ! , , , , , , 2 2 7 7 ",
"6 < 6 < b < * # - < < h < < < , - - - < 6 6 < - - - - - * < 4 < , , , , , , , r 2 2 2 2 = = , , 2 2 ",
"6 : b < # % , < * h - I % % % % % * < 6 6 6 < * * * * * * < 4 < - - - - = , 4 7 = = = = = = = , , , ",
"I % - * % < < @.h %.* # < < 6 I < < h I $ * - * , , < < ^ 6 # - % - , , 4 & ] & = , = , - , , 7 7 O ",
"..- 6 6 ^ %.< h < ..- % % 6 ..b 6 b ^ %.% # - ....b < , %.r O % , >.6.4 7 A :.& O O ] ] A 7 7 r 7 + ",
"b * j b * < * 6 - ^ , - 4.< * < < 6 b ^ - h 6 * , , 4 b , , * J 4 , , , 2 A A & A ] = , , 4 A 7 2 O ",
"- # < 6 ..%.- , * b < < 6 b 6 , % * - < , , 6 @.4 * % # 4 4 % 7 , s 4 + = = & = , , ] } % & = , = . ",
"< < < < < < < < * , , * < - - < < % % - < < - * b , * % , 4 = = % = , & & , , , - & = 2 2 = @ @ = = ",
"I 6 * $ % h h % < 6 6 < * % < @.b < , 6 < < - * r 4 = % 4 r r , = , 7 2 , & & 2 7 = + & w 2 = > 2 2 ",
"I 6 * $ % h h % % %.%.% * % < @.* * 6 4.< , - * , J , & ] A 2 O & , 7 A O 2 :.:.& % = 7 :.@ + w S 3 ",
"< < < < < < < < , * * , < - - < h * # % 6 < - * * r 4 = O + , 2   & - , , & & = 2 & & - = = = + = > ",
"j 6 6 6 ^ # < ^ < < < < 6 b < % b - * 6 6 < 6 6 + , 7 = , , , , 2 r O 7 = = = = 2 2 2 2 , 7 & , > > ",
"< < < < < , , # < < < < h , - < - - < I < < < < * & & & , , , , A , - & - , , , , , , , & , , 7 > > ",
"< < , , % ^ ^ b < < < < < - , b 6 6 < * , , , , ! r 2 7 , , , , & & ] 4 2 2 , , = = = = 7 , , & > > ",
"- - - - , b % , < < < < % < b 6 * 6 h , * * * * r , , 7 , , , , & , r , 2 2 2 2 = = = = , & 7 , > > ",
"< b < 6 %.^ 6 , % % b I < 6 < , * , , - r r - ! 7 = & = + 7 R = 7 A 2 + 3 + & ] 2 2 2 2 @ @ @ & 3 3 ",
"< b < 6 6 6 6 6 - * 6 6 6 < , < 4 < < 4 J , r r , 2 7 2 @ 3 N , 7 = = 7 2 & = R 2 2 2 2 , , , , 3 3 ",
"< b < 6 < < < < < , h < < , < 6 , , , 4 J , r r = 4 2 , = , 3 3 7 = = 7 = = , 7 2 2 2 2 , , , , 3 3 ",
"< b < 6 h < * % , * h < , < 6 < # % * - r r - ! 2 & + + = > 2 7 w A 2 + = , 2 3 2 2 2 2 & & @ @ 3 3 ",
"h , < % $ , * < % 6 - - - * $ - % * - 4 % < ,   = + , & , 2 2 , & & @ @ = @ 2 = = = & @ & & & & N = ",
"^ % - < 6 I < b j %., * - < h b , 4 J J % * , 4 7 , 7 2 A 2 = & 2 2 2 2 , 7 :.= , > = = 3 3 3 3 2 o ",
"6 # , h 6 I < h j %., * < h ..b 4 J J J % = 4 Q A 2 R 7 ] , & = 7 7 7 7 , 7 :.= + = 3 R a a N a > . ",
"- * h 6 - < * < * j , , @.6 < * 4 4 4 r % r Q , 4 , 7 2 N & & N 2 2 2 2 , & 2 = R a , = 3 3 3 3 2 o ",
"< , < , b < * $ * , , * < b r , - * * , % * , 7 7 + = & , = + + , 3 = O @ > = + > 3 R Q @ & & @ = @ ",
"6 < , , < < - % * < < * * < s r = & - 7 4 - & = 7 = = + = = = = & 7 3 & @ > , = & & = 2 > & & > > > ",
"b 6 * - * 6 < % , 6 r , - * , s - & 2 ] 7 , = + 7 7 & + 2 2 , = + 2 N 3 + , a 3 @ @ & > 3 = = 3 N 3 ",
"^ < * - $ 6 6 % < b b < , - = , , * 2 <.2 , , , 2 S = , 7 3 , = & , N A + 2 R Q @ & , 2 E = = E R N ",
"< < < < * * < < - * , r s % , = r * = & , = & + = 2 , = + + = 2 + = = 2 > + + > & & & & > > = @ > > ",
"< < < < 4.% b < * , 4 4 7 7 4 + 4 4 7 7 2 7 A R & 7 7 & A 7 2 7 7 ] & 2 @ , , @ 2 2 2 2 = > > > > > ",
"< < < < < - % * , 6 4 , - r , - % - , = & = 2 2 + + + + 2 , = = = = + + > 3 3 > 2 2 , 2 & > > , > > ",
"< < < < % < 4.- 4 < , 7 % - * >.s 7 - = 2 , = & = N N = = , 2 = , O ] 2 a > > a & & & & 3 , > & > > ",
"* 6 - - ..b % , 4 - 7 , = , r 4 - - - - , @ @ , A & , = = 7 r = = 2 3 , 7 = = 2 & = , , > > > > > > ",
"< %.6 6 ..b % , % % J J - 7 J , - - - - A , 2 A A & , = = 7 7 = 2 7 2 , 2 = , 7 2 3 a Q > > > > 3 3 "
};
