/* XPM */
static char *eab2f1b90c634abe81999c2e548043a0sifFg2uqMv7XY5AW[] = {
/* columns rows colors chars-per-pixel */
"50 50 126 2 ",
"   c #020101",
".  c #0B0101",
"X  c #0A0A0A",
"o  c #15090D",
"O  c #170D10",
"+  c #141414",
"@  c #1D1D1D",
"#  c #242323",
"$  c #2B2B2B",
"%  c #343333",
"&  c #383637",
"*  c #3A3A3A",
"=  c #4B4B4B",
"-  c #594F53",
";  c #525152",
":  c #585556",
">  c #5C5C5C",
",  c #635C5E",
"<  c #655E61",
"1  c #646464",
"2  c #6B6A6A",
"3  c #737373",
"4  c #787677",
"5  c #7C7C7C",
"6  c #817E7F",
"7  c #83817F",
"8  c #827F80",
"9  c #828282",
"0  c #898586",
"q  c #8B8987",
"w  c #8A8788",
"e  c #8B8B8B",
"r  c #938F8E",
"t  c #92908E",
"y  c #949393",
"u  c #9C9597",
"i  c #9A9897",
"p  c #9B9B9B",
"a  c #AC919A",
"s  c #A1989B",
"d  c #A69FA2",
"f  c #A3A3A3",
"g  c #ABA4A4",
"h  c #A9A7A8",
"j  c #ABABAB",
"k  c #B4A4A7",
"l  c #B0A4A8",
"z  c #B1AFAE",
"x  c #B1AFB0",
"c  c #B3B3B3",
"v  c #B8B6B7",
"b  c #BDBDBD",
"n  c #C3C3C3",
"m  c #C9C6C7",
"M  c #CBCBCB",
"N  c #D4CBCE",
"B  c #D4D4D4",
"V  c #DCD2D3",
"C  c #DBDBDB",
"Z  c #E4CAD3",
"A  c #E0D0D3",
"S  c #E0DEDC",
"D  c #E3E3E3",
"F  c #ECE7E9",
"G  c #EFEDEE",
"H  c #EEEEEE",
"J  c #EFEFEF",
"K  c #ECECEC",
"L  c #ECECEC",
"P  c #F0EEED",
"I  c #F0EEEF",
"U  c #F1EFF0",
"Y  c #F3EEF0",
"T  c #FFEBF2",
"R  c #FDECF2",
"E  c gray94",
"W  c #F1F1F1",
"Q  c #F3F0F1",
"!  c gray95",
"~  c #F3F3F3",
"^  c #F5F1F0",
"/  c #F4F2F0",
"(  c #F5F3F1",
")  c #F4F1F2",
"_  c #F5F1F2",
"`  c #F5F3F3",
"'  c gray96",
"]  c #F7F5F4",
"[  c #F6F4F5",
"{  c #F7F5F6",
"}  c #F6F6F6",
"|  c gray97",
" . c #F2F2F2",
".. c #F9F2F2",
"X. c #FBF2F2",
"o. c #FDF1F2",
"O. c #F8F6F5",
"+. c #F8F6F7",
"@. c #FBF7F6",
"#. c #FAF8F6",
"$. c #FAF7F8",
"%. c #FEF7F9",
"&. c #F8F8F8",
"*. c #F9F9F9",
"=. c #FBF8F9",
"-. c gray98",
";. c #FCF8F9",
":. c #FCFAF8",
">. c #FDFBF9",
",. c #FCFAFA",
"<. c #FFFBFB",
"1. c #FEFCFB",
"2. c #FCFBFC",
"3. c #FDFDFD",
"4. c #FFFDFC",
"5. c #FEFCFD",
"6. c #FDFFFD",
"7. c #FFFEFD",
"8. c #FFFFFD",
"9. c #FFFCFE",
"0. c #FFFDFE",
"q. c #FEFEFE",
"w. c #FFFFFE",
"e. c #FFFEFF",
"r. c white",
"t. c #FEFEFE",
/* pixels */
"r.r.r.r.r.r.r.r.r.r.r.r.r.r.r.r.r.r.r.r.r.r.r.r.2.' r.r.r.r.$.-.r.;.r.+.r.r.r.r.r.r.r.r.r.r.r.r.r.r.",
"r.r.r.r.r.r.r.r.r.r.r.r.r.r.r.r.r.r.r.r.r.r.r.r.r.r.r.r.r.r.r.r.r.1.' ;.r.r.r.r.r.r.r.r.r.r.r.r.r.r.",
"r.r.r.r.r.r.r.r.r.r.r.r.r.r.r.r.r.r.r.r.r.r.r.r.H D H H ) r.Q F / F ) r.r.r.r.r.r.r.r.r.r.r.r.r.r.r.",
"r.r.r.r.r.r.r.r.r.r.r.r.r.r.r.r.r.r.r.r.r.r.r.r.= X +   * +.2   +   # r.r.r.r.r.r.r.r.r.r.r.r.r.r.r.",
"r.r.r.r.r.r.r.r.r.r.r.r.r.r.r.r.r.r.r.r.-.r.C y 0 5 5 9 0 y 0 5 5 9 7 q M +.r.r.r.r.r.r.r.r.r.r.r.r.",
"r.r.r.r.r.r.r.r.r.r.r.r.r.r.r.r.r.r.r.r.2.r.b   B r.r.2.C   v r.r.;.#.  0 ;.r.1.r.r.r.r.r.r.r.r.r.r.",
"r.r.r.r.r.r.r.r.r.r.r.r.r.r.r.r.r.r.r.r.r.r.b   n -.H B f X d r.I S z X i r.;.r.r.r.r.r.r.r.r.r.r.r.",
"r.r.r.r.r.r.r.r.r.r.r.r.r.r.r.r.r.r.r.r.r.r.b X m r.F V s . f ' ) V g   y r.r.r.r.r.r.r.r.r.r.r.r.r.",
"r.r.r.r.r.r.r.r.r.r.r.r.r.r.r.r.r.r.r.r.r.r.b   b ;.R Z a . d r...V k . r r.1.r.r.r.r.r.r.r.r.r.r.r.",
"r.r.r.r.r.r.r.r.r.r.r.r.r.r.r.r.r.r.r.r.r.r.b   b %.T Z a . d r.o.Z k . r r.1.r.r.r.r.r.r.r.r.r.r.r.",
"r.r.r.r.r.r.r.r.r.r.r.r.r.r.r.r.r.r.r.r.r.r.b   b %.T Z a . d r.o.A k . r r.1.r.r.r.r.r.r.r.r.r.r.r.",
"r.r.r.r.r.r.r.r.r.r.r.r.r.r.r.r.r.r.r.r.r.r.b   b %.T Z a . d r...V k . r r.1.r.r.r.r.r.r.r.r.r.r.r.",
"r.r.r.r.r.r.r.r.r.r.r.r.r.r.r.r.r.r.r.r.r.r.b   b %.T Z a . d r...V k . r r.1.r.r.r.r.r.r.r.r.r.r.r.",
"r.r.r.r.r.r.r.r.r.r.r.r.r.r.r.r.r.r.r.r.r.r.b   b %.T Z a . d r...V k . r r.;.r.r.r.r.r.r.r.r.r.r.r.",
"r.r.r.r.r.r.r.r.r.r.r.r.r.r.r.r.r.r.r.r.r.r.b   b %.T Z a . d r...V k . r r.;.r.r.r.r.r.r.r.r.r.r.r.",
"r.r.r.r.r.r.r.r.r.r.r.r.r.r.r.r.r.r.r.r.r.r.b   n ;.R Z a . f r...V k . t r.1.r.r.r.r.r.r.r.r.r.r.r.",
"r.r.r.r.r.r.r.r.r.r.r.r.r.r.r.r.r.r.r.r.r.r.b   m r.Y V u   f r.F N l O p r.) $.' r.r.r.r.r.r.r.r.r.",
"r.r.r.r.r.r.r.r.r.r.r.r.r.r.r.r.r.r.r.r.r.r.b   m -.H Q b   + + X O o .   +   r r.r.r.r.r.r.r.r.r.r.",
"r.r.r.r.r.r.r.r.r.r.r.r.r.r.r.r.r.r.r.r.r.r.b   b ' Q -.C > > : , - , < 1 > ; 8 j ' r.' r.r.r.r.r.r.",
"r.r.r.r.r.r.r.r.r.r.r.r.r.r.r.r.r.r.r.r.r.r.b   b r.' F ' r.2.r.r.r.r.r.) r.r.6 X Q -.r.r.r.r.r.r.r.",
"r.r.r.r.r.r.r.r.r.r.r.r.r.r.r.r.r.r.r.r.r.r.b   b r.' H Q Q Q Q ) ) ) ) ' F r.F n & y r.-.r.r.-.r.r.",
"r.r.r.r.r.r.r.r.r.r.r.r.r.r.r.r.r.r.r.r.r.r.b   n r.Q H Q Q Q Q ) ) ) ) $.) x C Q * 2 B Q -.r.r.r.r.",
"r.r.r.r.r.r.r.r.r.r.r.r.r.r.r.r.r.r.r.r.r.r.b   n r.Q H Q Q Q Q ) ) ) ) ;.F X 4 ' r.e   -.Q ' -.r.r.",
"r.r.r.r.r.r.r.r.r.r.r.r.r.r.r.r.r.r.r.r.r.r.b   n r.Q Q Q Q Q Q ) ) ) ) ' D   2 r.F B h 1 e 2.' r.r.",
"r.r.r.r.r.r.r.r.r.r.r.r.r.r.r.r.r.r.2.r.Q r.j X j -.Q ' Q Q Q Q ) ) ) ) ) ' # w ' ' ' ' $ ; r.Q r.r.",
"r.r.r.r.r.r.r.r.r.r.r.r.r.r.r.r.r.-.r.' 2.* X X c F Q ' Q Q Q Q ) ) ) ' +.H F ) ' ' ' ' B 3   B r.r.",
"r.r.r.r.r.r.r.r.r.r.r.r.r.r.r.r.B 5 w 5 9 6 9 e 5 y -.Q Q Q Q Q ) ) ) ) ' ;.' r.-.' ' ' 2 3 e D r.r.",
"r.r.r.r.r.r.r.r.r.r.r.r.r.r.r.r.h         C r.r.$ $ r.H Q Q Q Q ) ) ) Q Y ) I +.-.' ' '   1 -.-.r.r.",
"r.r.r.r.r.r.r.r.r.r.r.' -.p X X 2 ' D D F H Q Q & # r.Q Q Q J ~ ) ) ) Q Q Q ) ' +.-.' Q X ; r.2.r.r.",
"r.r.r.r.r.r.r.r.r.r.2.-.c e 1 ; p r.Q r.2.-.-.r.5 2 e B D F H H Y ) ) ) ) ) ) ) Q F m r 1 p r.r.r.r.",
"r.r.r.r.r.r.r.r.r.r.r.r.  3 2.r.r.' Q Q F H Q Q r.m   h Q D Q Q ) ) ) ) ) ) ) ) ' $.4 X F r.r.;.r.r.",
"r.r.r.r.r.r.r.r.-.&.f $ n D ' Q H ' r.r.r.r.r.r.F C m 1 $ % f -.) ) ) ) ) ) ) ) $.& 4 C #.r.E r.r.r.",
"r.r.r.r.r.r.r.r.-.B 0 % 2.' Q F ' D m m m c m Q F Q -.9 # # 0 c j j j j h h h x c % e -.2.-.r.r.r.r.",
"r.r.r.r.r.2.2.2.H   0 r.' ' Q Q r.-.@   X X * r.2.' J -.' r.>             X X     &.2.Q -.r.r.r.r.r.",
"r.r.r.r.r.r.r.r.'   4 r.Q Q ' ' c ; p j f p e ; M r.D -.-.r.b p f f f f c h   > b 2.r.r.r.r.r.r.r.r.",
"r.r.r.r.H H H H M @ e r.H E ' r.f X D E r.r.b   h D F Q Q ' -.r.r.r.r.r.r.'   e r.r.-.r.r.r.r.r.r.r.",
"r.2.-.r.>   X   # ' -.F H Q Q Q Q Q Q ~ Q Q Q Q & * r.F F Q H D Q Q Q Q E C   5 r.2.r.r.r.r.r.r.r.r.",
"r.r.F 9 9 e y & @ E &.F Q Q Q E E E E E Q Q Q Q f 9 3 C 2.-.F -.Q Q Q Q r.D X 5 2.r.r.r.r.r.r.r.r.r.",
"r.r.B   h r.r.3 X F ' K Q Q Q Q Q Q Q E Q E Q Q r.m X f ' H Q H H Q Q Q Q B X e r.r.r.r.r.r.r.r.r.r.",
"r.-.C X e -.' 1 X D Q H Q Q Q Q Q Q Q Q Q Q Q Q ' b X h r.r.2 * H Q Q Q 5 # D Q r.r.r.r.r.r.r.r.r.r.",
"r.r.B X p -.r.3 X D H Q Q Q Q Q Q Q Q Q ~ ' ' ' r.b X b -.' = + H ' H Q 2   -.r.r.r.r.r.r.r.r.r.r.r.",
"E r.C   f 2.r.> + C D Q Q Q Q Q Q Q Q ' ' ' Q K r.c X c ' Q ; # ' H Q r.2 X ' 2.r.r.r.r.r.r.r.r.r.r.",
"r.r.B   y ' H D v # p r.~ Q Q Q Q Q Q Q ' -.r.r.3 ; m C -.-.; # Q 2.C % y D ' r.r.r.r.r.r.r.r.r.r.r.",
"r.' D * 9 b j b c X 4 -.~ Q Q Q Q Q Q Q r.K B n + $ n j h b * # H Q C   3 D Q r.r.r.r.r.r.r.r.r.r.r.",
"r.r.r.r.>           5 -.D D r.Q Q Q Q Q D r.n       X         $ ' r.C     X r.r.r.r.r.r.r.r.r.r.r.r.",
"r.r.r.r.M h c h j c 5 ; H Q Q Q Q Q E E Q 2 1 c h 9   5 j b % @ -.r.H h f j ; c r.r.r.r.r.r.r.r.r.r.",
"r.r.r.r.r.r.r.2.r.r.y @ b D ~ D Q Q Q Q ' $ = r.r.m   n -.r.> # F D F ' r.H   5 r.r.r.r.r.r.r.r.r.r.",
"r.r.r.2.-.r.-.' -.r.&.E   2 r.J Q Q Q Q H H Q F ' c X c r.' = # ' F -.F -.D   4 r.r.r.r.r.r.r.r.r.r.",
"r.r.r.r.r.r.r.r.r.r.r.r.p 5 1 2 2 2 2 2 2 2 2 2 3 >   c r.r.>   2 2 2 2 3 2   e r.r.r.r.r.r.r.r.r.r.",
"r.r.r.r.r.r.r.r.r.r.r.r.r.p X             X           b r.r.>           X     6 r.r.r.r.r.r.r.r.r.r."
};
