/* XPM */
static char *_e45ada890894293cab8ea8e1a08c360OECS7UFj8CDjYRfC[] = {
/* columns rows colors chars-per-pixel */
"50 50 35 1 ",
"  c #47704C",
". c black",
"X c black",
"o c black",
"O c black",
"+ c black",
"@ c black",
"# c #080909",
"$ c gray10",
"% c black",
"& c gray10",
"* c black",
"= c None",
"- c gray72",
"; c #BAC1C7",
": c #CACACA",
"> c #EBF5FE",
", c gray11",
"< c #FEFFFF",
"1 c #D1D2D2",
"2 c #E4E4E4",
"3 c #DCDFE2",
"4 c #181819",
"5 c #FBFDFE",
"6 c #D0D8E0",
"7 c #F5FAFE",
"8 c #EEF1F4",
"9 c #D1DBE5",
"0 c #343638",
"q c #EDEEEF",
"w c #F5F8F9",
"e c gray22",
"r c #353535",
"t c #343536",
"y c #323334",
/* pixels */
"                                                  ",
"                                                  ",
"                                                  ",
"                                                  ",
"                                                  ",
"                                                  ",
"                                                  ",
"                                                  ",
"                                                  ",
"                                                  ",
"                                                  ",
"                         +oo++oo+                 ",
"                         @OO@@OO@                 ",
"                       +@#&&##$$#@+               ",
"                       oO$::$$::$Oo               ",
"                       .%,22,,22,%.               ",
"                       .X,33,,33,X.               ",
"                       .X,33,,33,X.               ",
"                       .X,664466,X.               ",
"                       .X,6900990$#@+             ",
"                       .X,6>337w1-&O@             ",
"                 +o....#$09>75<581r&#@+           ",
"                 @O%XXX$;9>75<<<5w1-$Oo           ",
"               +@#$,,,,09>w7<5225581,%.           ",
"               @O&-11169>wqq<2ee2<q1,X.           ",
"           +o..#$018qq>>7wqq<3,,3<q1,X.           ",
"           @O*X$;98>ww55>>qq<3,,3<q1,X.           ",
"         +@#O*=,6>>>ww<<>>qq<2ee2<q1,X.           ",
"         oOO##*,6>7w>>5<55>><5225<81,%.           ",
"         .**##$09>77>>55<<>>5<<5231-$Oo           ",
"         .%=*$;9>77577>>5<<5>>53e,,$#@+           ",
"         oO*=,6>7w33338>5<<5>83;$X%O@             ",
"         +@#*,6>>90,,09>w77w>90$#o.o+             ",
"           .X,6>>60,,y;66663860$#@+               ",
"           .X,18qq222:t,,,,r1q2:$Oo               ",
"           .X4-111322:4=*XX$-12;4%.               ",
"           .%=4,,,,,,,=*#..#&,,4=%.               ",
"           oO%XXXXXXXX%O@  @O%XX%Oo               ",
"           +o..........o+  +o....o+               ",
"                                                  ",
"                                                  ",
"                                                  ",
"                                                  ",
"                                                  ",
"                                                  ",
"                                                  ",
"                                                  ",
"                                                  ",
"                                                  ",
"                                                  "
};
