/* XPM */
static char *_f592901643640f8cd8cd922d5193d25B4YmSsSBfQ0Y5FQN[] = {
/* columns rows colors chars-per-pixel */
"50 50 51 1 ",
"  c #47704C",
". c #9F906D",
"X c #B8A671",
"o c #CDB883",
"O c #CDBA8B",
"+ c #C8AE70",
"@ c #B3A375",
"# c #A79566",
"$ c #BEA667",
"% c #A78E54",
"& c #B5A161",
"* c #B1A384",
"= c #A18F65",
"- c #B39D61",
"; c #8C7C58",
": c #A68F59",
"> c #9F9474",
", c #CCB374",
"< c #837047",
"1 c #AC9357",
"2 c #917D50",
"3 c #D5BA75",
"4 c #AB9259",
"5 c #7D6A43",
"6 c #A79368",
"7 c #BCA266",
"8 c #756544",
"9 c #927D4B",
"0 c #927C4D",
"q c #98824F",
"w c #8C7E57",
"e c #B9A363",
"r c None",
"t c #907E55",
"y c #99875E",
"u c #83724D",
"i c #C2AA6A",
"p c #9E864E",
"a c #958358",
"s c #998860",
"d c #B19962",
"f c #A1884D",
"g c #AF9859",
"h c #A48C51",
"j c #AC9355",
"k c #8B7542",
"l c #C3A968",
"z c #BBA262",
"x c #B6A15F",
"c c #907D4A",
"v c #B7A260",
/* pixels */
"                                                  ",
"                                                  ",
"                                                  ",
"                                                  ",
"                                                  ",
"                                                  ",
"                                                  ",
"                                                  ",
"                       *6=>                       ",
"                       .4:X                       ",
"                       O71X                       ",
"                      *s1pa>                      ",
"                      .0ff9;                      ",
"                      O7zj-o                      ",
"                      O,lg+o                      ",
"                      O,zx+o                      ",
"                      Odgg-#                      ",
"                      .0ff9;                      ",
"                      >2hf<.                      ",
"                       yghu                       ",
"                       =erw                       ",
"                      *@$&X                       ",
"                       @-&X                       ",
"                       o-&X                       ",
"                       o$&X                       ",
"                       o33X                       ",
"                       #:%X                       ",
"                       ;55;                       ",
"                       o$%#                       ",
"                       6i1t                       ",
"                       8ck8                       ",
"                      .<kk<.                      ",
"                      @qhhq#                      ",
"                      @+lj$o                      ",
"                      o+lg+o                      ",
"                      o+vx+o                      ",
"                      @:jj:@                      ",
"                      .2ff2.                      ",
"                       =%%=                       ",
"                       X$%#                       ",
"                       o,4#                       ",
"                       *XX*                       ",
"                                                  ",
"                                                  ",
"                                                  ",
"                                                  ",
"                                                  ",
"                                                  ",
"                                                  ",
"                                                  "
};
